<mxfile host="app.diagrams.net" modified="2023-12-06T05:43:31.249Z" agent="Mozilla/5.0 (Windows NT 10.0; Win64; x64) AppleWebKit/537.36 (KHTML, like Gecko) Chrome/119.0.0.0 Safari/537.36 Edg/119.0.0.0" etag="V1uKQcNa4zQU0-woHlzy" version="22.1.5" type="github">
  <diagram name="Page-1" id="dd472eb7-4b8b-5cd9-a60b-b15522922e76">
    <mxGraphModel dx="1125" dy="722" grid="1" gridSize="10" guides="1" tooltips="1" connect="1" arrows="1" fold="1" page="1" pageScale="1" pageWidth="1100" pageHeight="850" background="none" math="0" shadow="0">
      <root>
        <mxCell id="0" />
        <mxCell id="1" parent="0" />
        <mxCell id="7YWWSOIYfI9C4DpH2xJT-3" value="start" style="shape=mxgraph.flowchart.terminator;strokeWidth=2;gradientColor=none;gradientDirection=north;fontStyle=0;html=1;" parent="1" vertex="1">
          <mxGeometry x="260" y="60" width="120" height="30" as="geometry" />
        </mxCell>
        <mxCell id="7YWWSOIYfI9C4DpH2xJT-4" style="fontStyle=1;strokeColor=#003366;strokeWidth=1;html=1;entryX=0.5;entryY=0;entryDx=0;entryDy=0;exitX=0.5;exitY=1;exitDx=0;exitDy=0;exitPerimeter=0;" parent="1" source="7YWWSOIYfI9C4DpH2xJT-3" target="7YWWSOIYfI9C4DpH2xJT-6" edge="1">
          <mxGeometry relative="1" as="geometry">
            <mxPoint x="320" y="130" as="targetPoint" />
          </mxGeometry>
        </mxCell>
        <mxCell id="7YWWSOIYfI9C4DpH2xJT-5" value="end" style="shape=mxgraph.flowchart.terminator;strokeWidth=2;gradientColor=none;gradientDirection=north;fontStyle=0;html=1;" parent="1" vertex="1">
          <mxGeometry x="260" y="250" width="120" height="30" as="geometry" />
        </mxCell>
        <mxCell id="7YWWSOIYfI9C4DpH2xJT-6" value="Initialization : Board, timer, etc." style="rounded=0;whiteSpace=wrap;html=1;" parent="1" vertex="1">
          <mxGeometry x="260" y="110" width="120" height="50" as="geometry" />
        </mxCell>
        <mxCell id="7YWWSOIYfI9C4DpH2xJT-7" value="Initialization : &lt;br&gt;task, queue, semaphore." style="rounded=0;whiteSpace=wrap;html=1;" parent="1" vertex="1">
          <mxGeometry x="260" y="180" width="120" height="50" as="geometry" />
        </mxCell>
        <mxCell id="7YWWSOIYfI9C4DpH2xJT-8" style="fontStyle=1;strokeColor=#003366;strokeWidth=1;html=1;entryX=0.5;entryY=0;entryDx=0;entryDy=0;" parent="1" source="7YWWSOIYfI9C4DpH2xJT-6" target="7YWWSOIYfI9C4DpH2xJT-7" edge="1">
          <mxGeometry relative="1" as="geometry">
            <mxPoint x="319.5" y="180" as="sourcePoint" />
            <mxPoint x="319.5" y="220" as="targetPoint" />
          </mxGeometry>
        </mxCell>
        <mxCell id="7YWWSOIYfI9C4DpH2xJT-9" style="fontStyle=1;strokeColor=#003366;strokeWidth=1;html=1;exitX=0.5;exitY=1;exitDx=0;exitDy=0;entryX=0.5;entryY=0;entryDx=0;entryDy=0;entryPerimeter=0;" parent="1" source="7YWWSOIYfI9C4DpH2xJT-7" target="7YWWSOIYfI9C4DpH2xJT-5" edge="1">
          <mxGeometry relative="1" as="geometry">
            <mxPoint x="319.5" y="300" as="sourcePoint" />
            <mxPoint x="320" y="300" as="targetPoint" />
          </mxGeometry>
        </mxCell>
        <mxCell id="7YWWSOIYfI9C4DpH2xJT-40" value="Task1" style="rounded=0;whiteSpace=wrap;html=1;" parent="1" vertex="1">
          <mxGeometry x="430" y="230" width="120" height="50" as="geometry" />
        </mxCell>
        <mxCell id="7YWWSOIYfI9C4DpH2xJT-41" value="Task2" style="rounded=0;whiteSpace=wrap;html=1;" parent="1" vertex="1">
          <mxGeometry x="570" y="230" width="120" height="50" as="geometry" />
        </mxCell>
        <mxCell id="7YWWSOIYfI9C4DpH2xJT-42" value="Task3" style="rounded=0;whiteSpace=wrap;html=1;" parent="1" vertex="1">
          <mxGeometry x="710" y="230" width="120" height="50" as="geometry" />
        </mxCell>
        <mxCell id="7YWWSOIYfI9C4DpH2xJT-45" value="" style="endArrow=classic;html=1;rounded=0;exitX=1;exitY=0.5;exitDx=0;exitDy=0;entryX=0.5;entryY=0;entryDx=0;entryDy=0;" parent="1" source="7YWWSOIYfI9C4DpH2xJT-7" target="7YWWSOIYfI9C4DpH2xJT-40" edge="1">
          <mxGeometry width="50" height="50" relative="1" as="geometry">
            <mxPoint x="520" y="270" as="sourcePoint" />
            <mxPoint x="560" y="205" as="targetPoint" />
            <Array as="points">
              <mxPoint x="490" y="205" />
            </Array>
          </mxGeometry>
        </mxCell>
        <mxCell id="7YWWSOIYfI9C4DpH2xJT-46" value="" style="endArrow=classic;html=1;rounded=0;" parent="1" edge="1">
          <mxGeometry width="50" height="50" relative="1" as="geometry">
            <mxPoint x="490" y="205" as="sourcePoint" />
            <mxPoint x="630" y="230" as="targetPoint" />
            <Array as="points">
              <mxPoint x="630" y="205" />
            </Array>
          </mxGeometry>
        </mxCell>
        <mxCell id="7YWWSOIYfI9C4DpH2xJT-47" value="" style="endArrow=classic;html=1;rounded=0;" parent="1" edge="1">
          <mxGeometry width="50" height="50" relative="1" as="geometry">
            <mxPoint x="629" y="205" as="sourcePoint" />
            <mxPoint x="769" y="230" as="targetPoint" />
            <Array as="points">
              <mxPoint x="769" y="205" />
            </Array>
          </mxGeometry>
        </mxCell>
      </root>
    </mxGraphModel>
  </diagram>
</mxfile>
